<svg width="232" height="36" viewBox="0 0 232 36" fill="none" xmlns="http://www.w3.org/2000/svg">
<path d="M0 0H63V36H0V0Z" fill="#18257E"/>
<path d="M37.7512 7.08H44.1712L47.2312 22.2H47.2912L50.3812 7.08H56.7712V28.5H52.8112V11.4H52.7512L48.9412 28.5H45.5812L41.7712 11.4H41.7112V28.5H37.7512V7.08Z" fill="white"/>
<path d="M23.7744 7.08H35.7444V10.62H28.0944V15.66H35.2944V19.2H28.0944V28.5H23.7744V7.08Z" fill="white"/>
<path d="M11.6818 7.08V22.02C11.6818 22.56 11.7118 23.06 11.7718 23.52C11.8518 23.96 11.9818 24.35 12.1618 24.69C12.3618 25.01 12.6218 25.27 12.9418 25.47C13.2618 25.65 13.6818 25.74 14.2018 25.74C14.7018 25.74 15.1118 25.65 15.4318 25.47C15.7718 25.27 16.0318 25.01 16.2118 24.69C16.4118 24.35 16.5418 23.96 16.6018 23.52C16.6818 23.06 16.7218 22.56 16.7218 22.02V7.08H21.0418V22.02C21.0418 23.38 20.8518 24.51 20.4718 25.41C20.0918 26.29 19.5818 26.99 18.9418 27.51C18.3018 28.03 17.5718 28.39 16.7518 28.59C15.9318 28.81 15.0818 28.92 14.2018 28.92C13.3218 28.92 12.4718 28.83 11.6518 28.65C10.8318 28.47 10.1018 28.13 9.46182 27.63C8.82182 27.11 8.31182 26.41 7.93182 25.53C7.55182 24.63 7.36182 23.46 7.36182 22.02V7.08H11.6818Z" fill="white"/>
<path d="M221.188 21.81V22.44C221.188 22.94 221.228 23.4 221.308 23.82C221.388 24.22 221.538 24.56 221.758 24.84C221.978 25.12 222.268 25.34 222.628 25.5C222.988 25.66 223.458 25.74 224.038 25.74C224.698 25.74 225.288 25.53 225.808 25.11C226.348 24.67 226.618 24 226.618 23.1C226.618 22.62 226.548 22.21 226.408 21.87C226.288 21.51 226.078 21.19 225.778 20.91C225.478 20.63 225.078 20.38 224.578 20.16C224.098 19.92 223.498 19.68 222.778 19.44C221.818 19.12 220.988 18.77 220.288 18.39C219.588 18.01 218.998 17.57 218.518 17.07C218.058 16.55 217.718 15.96 217.498 15.3C217.278 14.62 217.168 13.84 217.168 12.96C217.168 10.84 217.758 9.26 218.938 8.22C220.118 7.18 221.738 6.66 223.798 6.66C224.758 6.66 225.638 6.77 226.438 6.99C227.258 7.19 227.958 7.53 228.538 8.01C229.138 8.47 229.598 9.07 229.918 9.81C230.258 10.53 230.428 11.4 230.428 12.42V13.02H226.288C226.288 12 226.108 11.22 225.748 10.68C225.388 10.12 224.788 9.84 223.948 9.84C223.468 9.84 223.068 9.91 222.748 10.05C222.428 10.19 222.168 10.38 221.968 10.62C221.788 10.84 221.658 11.1 221.578 11.4C221.518 11.7 221.488 12.01 221.488 12.33C221.488 12.99 221.628 13.55 221.908 14.01C222.188 14.45 222.788 14.86 223.708 15.24L227.038 16.68C227.838 17.04 228.498 17.42 229.018 17.82C229.558 18.2 229.978 18.62 230.278 19.08C230.598 19.52 230.818 20.01 230.938 20.55C231.058 21.09 231.118 21.69 231.118 22.35C231.118 24.61 230.458 26.27 229.138 27.33C227.838 28.39 226.018 28.92 223.678 28.92C221.238 28.92 219.488 28.38 218.428 27.3C217.388 26.2 216.868 24.66 216.868 22.68V21.81H221.188Z" fill="#279ADB"/>
<path d="M215.235 7.08V10.62H207.585V15.66H214.785V19.2H207.585V24.96H215.535V28.5H203.265V7.08H215.235Z" fill="#279ADB"/>
<path d="M181.148 7.08H187.568L190.628 22.2H190.688L193.778 7.08H200.168V28.5H196.208V11.4H196.148L192.338 28.5H188.978L185.168 11.4H185.108V28.5H181.148V7.08Z" fill="#279ADB"/>
<path d="M179.183 7.08V10.62H174.503V28.5H170.183V10.62H165.503V7.08H179.183Z" fill="#279ADB"/>
<path d="M154.567 21.81V22.44C154.567 22.94 154.607 23.4 154.687 23.82C154.767 24.22 154.917 24.56 155.137 24.84C155.357 25.12 155.647 25.34 156.007 25.5C156.367 25.66 156.837 25.74 157.417 25.74C158.077 25.74 158.667 25.53 159.187 25.11C159.727 24.67 159.997 24 159.997 23.1C159.997 22.62 159.927 22.21 159.787 21.87C159.667 21.51 159.457 21.19 159.157 20.91C158.857 20.63 158.457 20.38 157.957 20.16C157.477 19.92 156.877 19.68 156.157 19.44C155.197 19.12 154.367 18.77 153.667 18.39C152.967 18.01 152.377 17.57 151.897 17.07C151.437 16.55 151.097 15.96 150.877 15.3C150.657 14.62 150.547 13.84 150.547 12.96C150.547 10.84 151.137 9.26 152.317 8.22C153.497 7.18 155.117 6.66 157.177 6.66C158.137 6.66 159.017 6.77 159.817 6.99C160.637 7.19 161.337 7.53 161.917 8.01C162.517 8.47 162.977 9.07 163.297 9.81C163.637 10.53 163.807 11.4 163.807 12.42V13.02H159.667C159.667 12 159.487 11.22 159.127 10.68C158.767 10.12 158.167 9.84 157.327 9.84C156.847 9.84 156.447 9.91 156.127 10.05C155.807 10.19 155.547 10.38 155.347 10.62C155.167 10.84 155.037 11.1 154.957 11.4C154.897 11.7 154.867 12.01 154.867 12.33C154.867 12.99 155.007 13.55 155.287 14.01C155.567 14.45 156.167 14.86 157.087 15.24L160.417 16.68C161.217 17.04 161.877 17.42 162.397 17.82C162.937 18.2 163.357 18.62 163.657 19.08C163.977 19.52 164.197 20.01 164.317 20.55C164.437 21.09 164.497 21.69 164.497 22.35C164.497 24.61 163.837 26.27 162.517 27.33C161.217 28.39 159.397 28.92 157.057 28.92C154.617 28.92 152.867 28.38 151.807 27.3C150.767 26.2 150.247 24.66 150.247 22.68V21.81H154.567Z" fill="#279ADB"/>
<path d="M139.478 7.08L142.298 15.36H142.358L145.358 7.08H150.038L144.488 20.07V28.5H140.168V20.07L134.618 7.08H139.478Z" fill="#279ADB"/>
<path d="M123.952 21.81V22.44C123.952 22.94 123.992 23.4 124.072 23.82C124.152 24.22 124.302 24.56 124.522 24.84C124.742 25.12 125.032 25.34 125.392 25.5C125.752 25.66 126.222 25.74 126.802 25.74C127.462 25.74 128.052 25.53 128.572 25.11C129.112 24.67 129.382 24 129.382 23.1C129.382 22.62 129.312 22.21 129.172 21.87C129.052 21.51 128.842 21.19 128.542 20.91C128.242 20.63 127.842 20.38 127.342 20.16C126.862 19.92 126.262 19.68 125.542 19.44C124.582 19.12 123.752 18.77 123.052 18.39C122.352 18.01 121.762 17.57 121.282 17.07C120.822 16.55 120.482 15.96 120.262 15.3C120.042 14.62 119.932 13.84 119.932 12.96C119.932 10.84 120.522 9.26 121.702 8.22C122.882 7.18 124.502 6.66 126.562 6.66C127.522 6.66 128.402 6.77 129.202 6.99C130.022 7.19 130.722 7.53 131.302 8.01C131.902 8.47 132.362 9.07 132.682 9.81C133.022 10.53 133.192 11.4 133.192 12.42V13.02H129.052C129.052 12 128.872 11.22 128.512 10.68C128.152 10.12 127.552 9.84 126.712 9.84C126.232 9.84 125.832 9.91 125.512 10.05C125.192 10.19 124.932 10.38 124.732 10.62C124.552 10.84 124.422 11.1 124.342 11.4C124.282 11.7 124.252 12.01 124.252 12.33C124.252 12.99 124.392 13.55 124.672 14.01C124.952 14.45 125.552 14.86 126.472 15.24L129.802 16.68C130.602 17.04 131.262 17.42 131.782 17.82C132.322 18.2 132.742 18.62 133.042 19.08C133.362 19.52 133.582 20.01 133.702 20.55C133.822 21.09 133.882 21.69 133.882 22.35C133.882 24.61 133.222 26.27 131.902 27.33C130.602 28.39 128.782 28.92 126.442 28.92C124.002 28.92 122.252 28.38 121.192 27.3C120.152 26.2 119.632 24.66 119.632 22.68V21.81H123.952Z" fill="#279ADB"/>
<path d="M98.3547 7.08H104.775L107.835 22.2H107.895L110.985 7.08H117.375V28.5H113.415V11.4H113.355L109.545 28.5H106.185L102.375 11.4H102.315V28.5H98.3547V7.08Z" fill="#279ADB"/>
<path d="M84.3779 7.08H96.3479V10.62H88.6979V15.66H95.8979V19.2H88.6979V28.5H84.3779V7.08Z" fill="#279ADB"/>
<path d="M72.2853 7.08V22.02C72.2853 22.56 72.3153 23.06 72.3753 23.52C72.4553 23.96 72.5853 24.35 72.7653 24.69C72.9653 25.01 73.2253 25.27 73.5453 25.47C73.8653 25.65 74.2853 25.74 74.8053 25.74C75.3053 25.74 75.7153 25.65 76.0353 25.47C76.3753 25.27 76.6353 25.01 76.8153 24.69C77.0153 24.35 77.1453 23.96 77.2053 23.52C77.2853 23.06 77.3253 22.56 77.3253 22.02V7.08H81.6453V22.02C81.6453 23.38 81.4553 24.51 81.0753 25.41C80.6953 26.29 80.1853 26.99 79.5453 27.51C78.9053 28.03 78.1753 28.39 77.3553 28.59C76.5353 28.81 75.6853 28.92 74.8053 28.92C73.9253 28.92 73.0753 28.83 72.2553 28.65C71.4353 28.47 70.7053 28.13 70.0653 27.63C69.4253 27.11 68.9153 26.41 68.5353 25.53C68.1553 24.63 67.9653 23.46 67.9653 22.02V7.08H72.2853Z" fill="#279ADB"/>
</svg>
